<svg width="35" height="35" viewBox="0 0 35 35" fill="none" xmlns="http://www.w3.org/2000/svg">
<g clip-path="url(#clip0_1_487)">
<path d="M17.5 2.24381L10.4343 1.38632L6.18115 2.07232V17.5072H12.3551C12.3551 17.5072 14.8513 16.1676 14.7987 13.253C16.4992 17.0112 15.657 15.1497 15.9005 15.688C16.8056 17.6877 16.032 20.0476 14.1187 21.1234C12.4747 21.781 11.2345 23.1047 10.6565 24.71L13.7271 25.396L17.5 24.71L18.186 13.3911L17.5 2.24381Z" fill="#613D5C"/>
<path d="M6.18115 0.0143466V2.07233C11.8634 2.25048 14.1631 1.57162 17.5 2.94841L18.186 2.07233L17.5 0.890429C14.1654 -0.485468 11.8725 0.192705 6.18115 0.0143466Z" fill="#FF6B6B"/>
<path d="M17.5001 5.42856L17.5 24.71L21.3759 25.396L24.7029 24.71V20.5941V13.7114C24.7029 10.24 22.6709 4.40053 19.3177 3.37058C18.767 3.20148 18.1701 3.22501 17.5 2.94849L17.5001 5.42856Z" fill="#4B2746"/>
<path d="M17.4999 24.7101H10.297H8.23901V29.8551L13.2125 30.5411L17.4999 29.8551L18.1859 27.4541L17.4999 24.7101Z" fill="#4B2746"/>
<path d="M17.5 29.8551L22.1305 30.5411L26.7609 29.8551V24.7101H24.7029H20.93H17.5V29.8551Z" fill="#351B33"/>
<path d="M17.5 0.890442V2.94842C21.7274 4.69277 24.7029 8.85421 24.7029 13.7114V11.6534C24.7029 6.79623 21.7274 2.63479 17.5 0.890442Z" fill="#FF3D7D"/>
<path d="M8.23901 4.81631H10.297V6.87429H8.23901V4.81631Z" fill="#4B2746"/>
<path d="M8.23913 29.8551H6.18115V32.942L12.0807 33.628L17.5 32.942L18.186 31.7L17.5 29.8551H8.23913Z" fill="#FEE05B"/>
<path d="M28.8189 29.8551H26.7609H17.5V32.9348L23.1251 33.6208L28.8189 32.9348V29.8551Z" fill="#FEC258"/>
<path d="M17.5 35H6.18115V32.942H17.5L18.186 33.971L17.5 35Z" fill="#FF6B6B"/>
<path d="M17.5 32.942H28.8189V35H17.5V32.942Z" fill="#FF3D7D"/>
</g>
<defs>
<clipPath id="clip0_1_487">
<rect width="35" height="35" fill="white"/>
</clipPath>
</defs>
</svg>
