<svg width="12" height="14" viewBox="0 0 12 14" fill="none" xmlns="http://www.w3.org/2000/svg">
<g clip-path="url(#clip0_1_118)">
<path d="M5.46429 3.5H6.53571C6.7125 3.5 6.85714 3.64766 6.85714 3.82812V7H8.65179C8.93839 7 9.08036 7.35273 8.87946 7.56055L6.22768 10.2676C6.10179 10.3961 5.89821 10.3961 5.77232 10.2676L3.12054 7.56055C2.91696 7.35273 3.06161 7 3.34821 7H5.14286V3.82812C5.14286 3.64766 5.2875 3.5 5.46429 3.5ZM12 2.1875V11.8125C12 12.5371 11.4241 13.125 10.7143 13.125H1.28571C0.575893 13.125 0 12.5371 0 11.8125V2.1875C0 1.46289 0.575893 0.875 1.28571 0.875H10.7143C11.4241 0.875 12 1.46289 12 2.1875ZM10.7143 11.6484V2.35156C10.7143 2.26133 10.642 2.1875 10.5536 2.1875H1.44643C1.35804 2.1875 1.28571 2.26133 1.28571 2.35156V11.6484C1.28571 11.7387 1.35804 11.8125 1.44643 11.8125H10.5536C10.642 11.8125 10.7143 11.7387 10.7143 11.6484Z" fill="#BDC0C1"/>
</g>
<defs>
<clipPath id="clip0_1_118">
<rect width="12" height="14" fill="white"/>
</clipPath>
</defs>
</svg>
