<svg width="53" height="53" viewBox="0 0 53 53" fill="none" xmlns="http://www.w3.org/2000/svg">
<circle cx="26.5" cy="26.5" r="26" fill="black" stroke="white"/>
<path d="M37.6776 37.6776C37.2476 38.1075 36.5519 38.1075 36.1219 37.6776L27 28.5556L17.8781 37.6776C17.4481 38.1075 16.7524 38.1075 16.3224 37.6776C15.8925 37.2476 15.8925 36.5519 16.3224 36.1219L25.4444 27L16.3224 17.8781C15.8925 17.4481 15.8925 16.7524 16.3224 16.3224C16.7524 15.8925 17.4481 15.8925 17.8781 16.3224L27 25.4444L36.1219 16.3224C36.5519 15.8925 37.2476 15.8925 37.6776 16.3224C38.1075 16.7524 38.1075 17.4481 37.6776 17.8781L28.5556 27L37.6776 36.1219C38.1075 36.5519 38.1075 37.2476 37.6776 37.6776Z" fill="white"/>
</svg>
