<svg width="22" height="22" viewBox="0 0 22 22" fill="none" xmlns="http://www.w3.org/2000/svg">
<g clip-path="url(#clip0_1_218)">
<path d="M0.34375 11C0.34375 5.11328 5.11328 0.34375 11 0.34375C16.8867 0.34375 21.6562 5.11328 21.6562 11C21.6562 16.8867 16.8867 21.6562 11 21.6562C5.11328 21.6562 0.34375 16.8867 0.34375 11ZM19.5938 11C19.5938 6.25195 15.748 2.40625 11 2.40625C6.25195 2.40625 2.40625 6.25195 2.40625 11C2.40625 15.748 6.25195 19.5938 11 19.5938C15.748 19.5938 19.5938 15.748 19.5938 11ZM11.4684 16.5816L16.6848 11.3652C16.8867 11.1633 16.8867 10.8367 16.6848 10.6348L11.4684 5.41836C11.2664 5.21641 10.9398 5.21641 10.7379 5.41836L9.8957 6.26055C9.68945 6.4668 9.69375 6.79766 9.9043 6.99961L12.925 9.88281H6.01562C5.73203 9.88281 5.5 10.1148 5.5 10.3984V11.6016C5.5 11.8852 5.73203 12.1172 6.01562 12.1172H12.925L9.9043 15.0004C9.69375 15.2023 9.68945 15.5332 9.8957 15.7395L10.7379 16.5816C10.9398 16.7836 11.2664 16.7836 11.4684 16.5816Z" fill="url(#paint0_linear_1_218)"/>
</g>
<defs>
<linearGradient id="paint0_linear_1_218" x1="9.5" y1="21.6562" x2="9.5" y2="2.08191e-08" gradientUnits="userSpaceOnUse">
<stop stop-color="#525252"/>
</linearGradient>
<clipPath id="clip0_1_218">
<rect width="22" height="22" fill="white" transform="matrix(-1 0 0 1 22 0)"/>
</clipPath>
</defs>
</svg>
