<svg width="22" height="22" viewBox="0 0 22 22" fill="none" xmlns="http://www.w3.org/2000/svg">
<g clip-path="url(#clip0_1_216)">
<path d="M21.6562 11C21.6562 5.11328 16.8867 0.34375 11 0.34375C5.11328 0.34375 0.34375 5.11328 0.34375 11C0.34375 16.8867 5.11328 21.6562 11 21.6562C16.8867 21.6562 21.6562 16.8867 21.6562 11ZM2.40625 11C2.40625 6.25195 6.25195 2.40625 11 2.40625C15.748 2.40625 19.5938 6.25195 19.5938 11C19.5938 15.748 15.748 19.5938 11 19.5938C6.25195 19.5938 2.40625 15.748 2.40625 11ZM10.5316 16.5816L5.31523 11.3652C5.11328 11.1633 5.11328 10.8367 5.31523 10.6348L10.5316 5.41836C10.7336 5.21641 11.0602 5.21641 11.2621 5.41836L12.1043 6.26055C12.3105 6.4668 12.3062 6.79766 12.0957 6.99961L9.075 9.88281H15.9844C16.268 9.88281 16.5 10.1148 16.5 10.3984V11.6016C16.5 11.8852 16.268 12.1172 15.9844 12.1172H9.075L12.0957 15.0004C12.3062 15.2023 12.3105 15.5332 12.1043 15.7395L11.2621 16.5816C11.0602 16.7836 10.7336 16.7836 10.5316 16.5816Z" fill="url(#paint0_linear_1_216)"/>
</g>
<defs>
<linearGradient id="paint0_linear_1_216" x1="12.5" y1="21.6562" x2="12.5" y2="2.08191e-08" gradientUnits="userSpaceOnUse">
<stop stop-color="#525252"/>
</linearGradient>
<clipPath id="clip0_1_216">
<rect width="22" height="22" fill="white"/>
</clipPath>
</defs>
</svg>
