<svg width="34" height="34" viewBox="0 0 34 34" fill="none" xmlns="http://www.w3.org/2000/svg">
<g clip-path="url(#clip0_1_523)">
<path d="M23.5635 1.10329L25.3133 4.13978L28.3581 5.81013L31.0621 3.81511L33.4887 0.773481C33.1119 0.742162 28.863 -0.496116 23.5635 1.10329Z" fill="#FF6B6B"/>
<path d="M33.4887 0.773468L28.3582 5.81012L29.9702 8.71137L33.1528 10.517C34.8007 5.25533 33.5235 1.177 33.4887 0.773468Z" fill="#FF3D7D"/>
<path d="M7.00854 7.20883L11.0538 11.18L12.0023 10.4607L12.3286 9.65585L10.9795 7.01281L8.42225 5.82101L7.00854 7.20883Z" fill="#FF3D7D"/>
<path d="M16.8334 4.75423L10.9738 3.3161L8.42212 5.82101L12.3285 9.65584L14.5304 8.54317L16.8334 4.75423Z" fill="#FF6B6B"/>
<path d="M26.9556 26.7908L28.3693 25.4031L26.8057 23.2086L24.4477 21.5532L23.3761 21.9815L22.9104 22.8196L26.9556 26.7908Z" fill="#C1126B"/>
<path d="M30.921 22.898L29.4562 17.1456L25.6677 19.4765L24.4478 21.5532L28.3694 25.4031L30.921 22.898Z" fill="#FF3D7D"/>
<path d="M8.83758 18.0016L10.2643 16.601L6.51392 20.2827L10.0758 23.7796L11.9044 22.9171L12.3996 21.4983L11.3698 19.1687L8.83758 18.0016Z" fill="#613D5C"/>
<path d="M12.6834 17.723L10.2644 16.601L8.83765 18.0016L12.3997 21.4983L13.1603 21.2484L13.8263 20.0979L12.6834 17.723Z" fill="#FF6B6B"/>
<path d="M10.0754 23.78L13.6374 27.2768L15.9614 24.9954L14.689 22.4274L12.3995 21.4986L10.0754 23.78Z" fill="#4B2746"/>
<path d="M16.3957 21.3676L13.8262 20.0979L12.3994 21.4986L15.9613 24.9954L17.3882 23.5946L16.3957 21.3676Z" fill="#FF3D7D"/>
<path d="M23.5636 1.1033C19.9392 2.19744 16.7326 4.33397 14.358 7.24491L8.1792 14.5541L13.8151 20.0869L22.2006 13.1738L28.3583 5.81007L23.5636 1.1033Z" fill="#F2F2FC"/>
<path d="M13.8152 20.0869L19.4513 25.6197L26.8968 19.5541C29.8567 17.2273 32.0363 14.0818 33.153 10.517L28.3583 5.81006L13.8152 20.0869Z" fill="#E2D9FB"/>
<path d="M0.00463867 26.6678L5.08575 21.6798L6.51029 23.0782L1.42918 28.0663L0.00463867 26.6678Z" fill="#E2D9FB"/>
<path d="M5.70215 32.2631L10.7833 27.275L12.2078 28.6735L7.12673 33.6616L5.70215 32.2631Z" fill="#C7C1DC"/>
<path d="M7.93832 24.4794L1.43164 30.867L2.144 31.5663L5.81467 28.6622L8.65074 25.1787L7.93832 24.4794Z" fill="#E2D9FB"/>
<path d="M2.1416 31.5623L8.64734 25.1757L9.35959 25.8749L2.85385 32.2615L2.1416 31.5623Z" fill="#C7C1DC"/>
<path d="M18.3847 10.0062C16.8098 11.5523 16.8095 14.0548 18.3846 15.601L22.0831 13.2889L24.0838 10.0062C22.5088 8.46028 19.9598 8.45989 18.3847 10.0062Z" fill="#613D5C"/>
<path d="M24.0838 10.0062L18.3845 15.601L18.3846 15.6011C19.9594 17.147 22.5086 17.1474 24.0838 15.6011C25.6551 14.0586 25.6551 11.5487 24.0838 10.0062Z" fill="#613D5C"/>
<path d="M19.8094 11.405C19.0219 12.1781 19.0218 13.4292 19.8094 14.2024L21.8816 13.4867L22.6589 11.4049C21.8713 10.6318 20.5969 10.6318 19.8094 11.405Z" fill="#7ED8F6"/>
<path d="M22.659 11.4049L19.8093 14.2024H19.8094C20.5967 14.9754 21.8713 14.9757 22.659 14.2024V14.2025C23.4446 13.4312 23.4446 12.1763 22.659 11.405L22.659 11.4049Z" fill="#6AA9FF"/>
</g>
<defs>
<clipPath id="clip0_1_523">
<rect width="34" height="33.3775" fill="white" transform="translate(0 0.286865)"/>
</clipPath>
</defs>
</svg>
